<svg xmlns="http://www.w3.org/2000/svg" xmlns:xlink="http://www.w3.org/1999/xlink" viewBox="0 0 1024 1024"><defs><style>.cls-1{fill:#fff;}.cls-2{fill:#9cff02;}.cls-3{fill:url(#名称未設定グラデーション_19);}</style><linearGradient id="名称未設定グラデーション_19" x1="512" y1="1024" x2="512" gradientUnits="userSpaceOnUse"><stop offset="0" stop-color="#2e9aff"/><stop offset="1" stop-color="#82c2ff"/></linearGradient><symbol id="shop_repair" data-name="shop_repair" viewBox="0 0 66.98 66.98"><path class="cls-1" d="M67,33.49a33.24,33.24,0,0,1-2.92,13.64l-2.15-1.91-2.2-1.94a28,28,0,1,0-13.24,15l2.2,1.94,2.16,1.91A33.48,33.48,0,1,1,67,33.49ZM54.43,38.63a21.26,21.26,0,0,1-2.14,5.44l4.88,4.31,2.1,1.85,2.07,1.83,3.82,3.37a4.51,4.51,0,0,1,1.44,4.19,4.61,4.61,0,0,1-1,2.17,4.47,4.47,0,0,1-2,1.28,4.59,4.59,0,0,1-1.37.24,4.45,4.45,0,0,1-3-1.13L55.38,58.8,53.31,57l-2.09-1.85-4.9-4.32a21.56,21.56,0,1,1,8.76-17.32A21.29,21.29,0,0,1,54.43,38.63ZM48.06,33A14.58,14.58,0,1,0,33.49,48.08c.45,0,.9,0,1.34-.07a14.32,14.32,0,0,0,6.07-2,14.56,14.56,0,0,0,7.18-12.54C48.08,33.33,48.06,33.17,48.06,33Z"/><path class="cls-2" d="M38.25,27.31l-2,2.67-1.59,2.15L32.59,35l-.2-.24-2.86-3.35-1.65-1.93L23.7,33l5,5.87,1.94,2.27a2.75,2.75,0,0,0,2.09,1h.1A2.77,2.77,0,0,0,35,41l.1-.14,5.37-7.27,2.25-3-4-2.95Z"/></symbol></defs><title>sos_logoapp</title><g id="Layer_2" data-name="Layer 2"><g id="レイヤー_1" data-name="レイヤー 1"><rect class="cls-3" width="1024" height="1024" rx="180"/><use width="66.98" height="66.98" transform="translate(204.8 204.8) scale(9.17)" xlink:href="#shop_repair"/></g></g></svg>